<svg id="svg2842" version="1.1" viewBox="0 0 118 405" xmlns="http://www.w3.org/2000/svg">
  <path id="path827" d="m7.54 404c-6.24-6.05 2.55-13.4 5.37-5.73 23.6-1.47 50.5-12.2 58.2-36.7 7.79-23.1-1.63-47.2-12.4-67.6-11.1-23.2-3.43-50.8 11.2-70.5 6.33-10.5 16.6-12.3 23.6-18.3 6.11-7.81 17.4-16.8 1.24-19.8-15.8-6.43-38.7-7.5-45.2-26.1-3.73-19.5 6.89-38 10.6-56.7 6.26-24.3 12.4-50.7 4.71-75.3-6.41-14.5-23.8-23.1-39.2-19.6-2.8 14.7-34.7 10.8-18.1-2.51 15.8-9.52 36.1-4.73 51.5 3.08 20.3 15.6 18.2 44.5 14.4 67.1-3.95 25.8-14 50.5-17.7 76.1 4.87 20 28.8 23.1 45.3 28.8 17 1.98 18.5 19.9 2.24 24.2-20.1 12.1-36.9 31.4-40.5 55.2-3.34 15 1.09 30.3 8.88 43.1 12.2 24.9 15.6 58.9-4.12 81-15.1 15.7-39 20.9-60 20.4z" fill="#000000"/>
</svg>
